<svg xmlns="http://www.w3.org/2000/svg" version="1.0" viewBox="0 0 48 48"><path fill="#CFD8DC" d="M5 19H43V38H5z"/><path fill="#B0BEC5" d="M5 38H43V42H5z"/><path fill="#455A64" d="M27 24H39V42H27z"/><path fill="#E3F2FD" d="M9 24H23V35H9z"/><path fill="#1E88E5" d="M10 25H22V34H10z"/><path fill="#90A4AE" d="M36.5,33.5c-0.3,0-0.5,0.2-0.5,0.5v2c0,0.3,0.2,0.5,0.5,0.5S37,36.3,37,36v-2C37,33.7,36.8,33.5,36.5,33.5z"/><path fill="#558B2F" d="M24 16A3 3 0 1 0 24 22 3 3 0 1 0 24 16zM36 16A3 3 0 1 0 36 22 3 3 0 1 0 36 16zM12 16A3 3 0 1 0 12 22 3 3 0 1 0 12 16z"/><path fill="#7CB342" d="M40 6H8C6.9 6 6 6.9 6 8v3h36V8C42 6.9 41.1 6 40 6zM21 11H27V19H21zM37 11L32 11 33 19 39 19zM11 11L16 11 15 19 9 19z"/><g><path fill="#FFA000" d="M30 16A3 3 0 1 0 30 22 3 3 0 1 0 30 16zM45 19c0 1.7-1.3 3-3 3s-3-1.3-3-3 1.3-3 3-3L45 19zM18 16A3 3 0 1 0 18 22 3 3 0 1 0 18 16zM3 19c0 1.7 1.3 3 3 3s3-1.3 3-3-1.3-3-3-3L3 19z"/></g><g><path fill="#FFC107" d="M32 11L27 11 27 19 33 19zM42 11L37 11 39 19 45 19zM16 11L21 11 21 19 15 19zM6 11L11 11 9 19 3 19z"/></g></svg>